<svg fill="none" height="56" viewBox="0 0 47 56" width="47" xmlns="http://www.w3.org/2000/svg"><g stroke="#021978" stroke-miterlimit="10"><path d="m25.856 35.9414 7.0173-5.1831 11.5358 15.6182c.6873.9306.9768 2.0961.8048 3.2401s-.7914 2.1728-1.722 2.8601c-.9305.6874-2.096.9769-3.24.8049s-2.1728-.7914-2.8602-1.722z" fill="#b8bedb" stroke-width="2"/><path d="m26.2297 27.215-1.8098 1.3368 4.1458 5.6129 1.8099-1.3367z" fill="#021978" stroke-width=".5"/><path d="m16.7338 31.2467c8.2807 0 14.9936-6.7129 14.9936-14.9936 0-8.28073-6.7129-14.99358-14.9936-14.99358-8.28072 0-14.99357 6.71285-14.99357 14.99358 0 8.2807 6.71285 14.9936 14.99357 14.9936z" fill="#b8bedb" stroke-width="2"/></g><path d="m35.4194 33.5337-7.6562 5.655 1.4491 1.962 7.6562-5.655z" fill="#021978"/><path d="m26.1315 15.4998-18.50113 3.1839 8.45863 11.5151c3.0037.2564 6.0047-.5233 8.5037-2.2095 2.4991-1.6861 4.3455-4.177 5.2322-7.0583z" fill="#021978" fill-opacity=".5"/><path d="m20.65 19.6493-3.9083-3.4943c.6684-.9386 1.4732-1.7721 2.3879-2.4729 1.1425-.8664 2.4286-1.5247 3.7995-1.9448.8169.7915 1.5643 1.6517 2.234 2.571.2866.3953.5466.796.7801 1.1568-1.0342.5994-2.0222 1.2752-2.9557 2.0218-.8267.6677-1.6076 1.3901-2.3375 2.1624z" fill="#3c905f" stroke="#285c3e" stroke-miterlimit="10" stroke-width=".3"/><path d="m24.0678 14.9667c-.1225-.3078-.2844-.5984-.4817-.8646-.2309-.3104-.506-.5854-.8164-.8163-.0532.08-.1246.1463-.2083.1936s-.1773.0742-.2733.0785c-.1106-.0003-.2188-.0319-.3121-.0911-.0934-.0593-.168-.1437-.2153-.2437-1.9164.8648-3.5121 2.3106-4.5612 4.1326.0886.0226.1695.0687.2339.1336.0645.0649.1101.1461.1321.2348.0195.1285-.0087.2597-.0792.3688s-.1785.1887-.3037.2237l1.2812 1.3775c.0136-.0557.038-.1081.0719-.1543.0339-.0463.0765-.0854.1255-.1151.0489-.0297.1033-.0495.1599-.0583.0566-.0087.1144-.0062.1701.0074s.1081.038.1543.0719c.0462.0338.0853.0765.1151.1255.0297.0489.0495.1033.0583.1599.0087.0566.0062.1144-.0074.1701.6169-.8539 1.326-1.6373 2.1144-2.336.7491-.6632 1.567-1.2445 2.4396-1.7339-.0574-.0586-.101-.1291-.1276-.2066-.0267-.0775-.0358-.1599-.0266-.2414.0153-.0955.0567-.185.1196-.2585.0628-.0735.1448-.1282.2369-.1581z" fill="#285c3e" stroke="#285c3e" stroke-miterlimit="10" stroke-width=".5"/><path d="m20.2521 17.532c.6697 0 1.2125-.5429 1.2125-1.2125 0-.6697-.5428-1.2126-1.2125-1.2126s-1.2125.5429-1.2125 1.2126c0 .6696.5428 1.2125 1.2125 1.2125z" fill="#3c905f"/><path d="m18.2198 18.4422c.2535 0 .459-.2055.459-.459s-.2055-.459-.459-.459-.4591.2055-.4591.459.2056.459.4591.459z" fill="#575756"/><path d="m22.4825 15.2725c.2535 0 .459-.2055.459-.459s-.2055-.459-.459-.459c-.2536 0-.4591.2055-.4591.459s.2055.459.4591.459z" fill="#3c905f"/><path d="m22.306 13.3227c.2367 0 .4285-.1524.4285-.3404s-.1918-.3405-.4285-.3405-.4286.1525-.4286.3405.1919.3404.4286.3404z" fill="#3c905f"/><path d="m24.3405 15.8774c.1964 0 .3557-.1608.3557-.3591s-.1593-.3591-.3557-.3591-.3556.1608-.3556.3591.1592.3591.3556.3591z" fill="#3c905f"/><path d="m20.5982 16.8979-.822-1.0881.0697-.0526.822 1.088zm-.3408-.9389c-.0376-.0392-.0836-.057-.1378-.0534-.0543.0036-.1077.0253-.1604.0651-.0386.0291-.0676.0608-.0871.0951-.0192.0341-.0286.0682-.0283.1022.0007.0338.0115.0646.0324.0923.0176.0233.0382.0391.0619.0474.0237.0079.0486.0107.0745.0085.0257-.0025.0508-.0075.0755-.015.0244-.0077.0462-.0156.0656-.0235l.1064-.043c.0272-.0112.0586-.022.0943-.0325.0359-.0107.0735-.0166.1127-.0178.0393-.0016.0779.0053.1158.0207s.0723.0436.1031.0844c.0355.047.0553.0988.0594.1554.0043.0564-.0086.1135-.0388.1714-.0298.0577-.0782.1119-.145.1624-.0624.0471-.1239.0778-.1848.0921-.0605.0142-.1174.0131-.1706-.0032-.053-.0165-.0992-.0473-.1385-.0923l.1088-.0822c.0276.0307.0592.0496.0948.0565.0356.0065.0722.0038.1099-.0082.0377-.0125.0739-.0318.1084-.0579.0403-.0304.0715-.0642.0937-.1015.0219-.0375.0334-.075.0343-.1127.0007-.0379-.0109-.0727-.0349-.1045-.0218-.0289-.0477-.0463-.0775-.0522-.0299-.006-.0622-.0046-.0972.0039-.0349.0086-.0708.0202-.1079.0348l-.1302.0503c-.0828.0319-.1577.0446-.2247.0383-.0671-.0063-.1228-.0388-.1671-.0974-.0368-.0487-.0558-.1012-.0568-.1574-.001-.0566.0133-.112.0429-.1659.0296-.0544.0722-.1026.1277-.1446.0561-.0424.1136-.07.1724-.0828.0587-.0132.1138-.0121.1654.0032.0519.0151.0951.0441.1297.0869z" fill="#285c3e"/><path d="m20.7455 19.5724c-1.2912 1.3681-2.3649 2.9259-3.1839 4.6194-1.1434-1.5816-2.61-2.902-4.3025-3.8736s-3.57228-1.5722-5.51461-1.762c-.16715-.6527-.60494-2.7275.51208-4.7254.29943-.533.68188-1.0149 1.13295-1.4275 4.36048 1.3204 8.28258 3.7957 11.35068 7.1638z" fill="#3c905f" stroke="#285c3e" stroke-miterlimit="10" stroke-width=".3"/><path d="m17.7032 21.4365c.1498-.2378.3162-.4993.5017-.7609.1855-.2615.3519-.4755.5231-.6895-.1628-.1124-.284-.2754-.3448-.4637-.0344-.1314-.0394-.2687-.0148-.4023.0247-.1335.0784-.26.1575-.3705-2.1493-2.0641-4.7107-3.6507-7.5161-4.6556-.0311.1331-.0916.2576-.1772.3642-.0856.1065-.1941.1926-.3174.2516-.1474.0635-.3094.0857-.4685.0644-.15913-.0214-.30947-.0855-.435-.1856-.24366.2608-.43211.5681-.55402.9035-.14816.4134-.18987.8574-.12127 1.2911.18368.0026.36284.0574.51652.1581.15369.1006.27556.2429.35137.4102.09254.2288.09254.4846 0 .7133 2.4769.6087 4.7469 1.8661 6.5769 3.6428.157-.2152.3914-.361.6538-.4066.2317-.033.4677.0148.6682.1355z" fill="#285c3e" stroke="#285c3e" stroke-miterlimit="10" stroke-width=".5"/><path d="m17.2724 20.7107c.293 0 .5306-.2376.5306-.5306 0-.2931-.2376-.5307-.5306-.5307-.2931 0-.5307.2376-.5307.5307 0 .293.2376.5306.5307.5306z" fill="#3c905f"/><path d="m14.2957 19.1159c.7723 0 1.3983-.6261 1.3983-1.3983s-.626-1.3983-1.3983-1.3983c-.7722 0-1.3982.6261-1.3982 1.3983s.626 1.3983 1.3982 1.3983z" fill="#3c905f"/><path d="m10.8226 16.7547c.2931 0 .5307-.2376.5307-.5307s-.2376-.5306-.5307-.5306c-.293 0-.5306.2375-.5306.5306s.2376.5307.5306.5307z" fill="#3c905f"/><path d="m13.7768 18.4957.9168-1.5701.1006.0587-.9168 1.5701zm.9803-.9014c.0289-.0664.0273-.1321-.005-.197s-.0865-.1196-.1625-.164c-.0556-.0325-.1095-.0519-.1618-.0582-.0518-.0062-.0985-.0003-.1402.0176-.0413.0181-.0736.0472-.097.0873-.0196.0335-.0284.067-.0266.1004.0025.0333.0118.0653.0278.096.0163.0304.0354.0588.0572.0852.0221.0261.043.049.0627.0687l.1075.1088c.0277.0277.0572.0608.0884.0994.0317.0387.0583.0819.0798.1296.0222.0475.0335.0985.034.1531.0005.0545-.0165.1113-.0509.1701-.0396.0679-.0932.1189-.1608.1529-.0671.0342-.1441.0477-.2308.0404-.0863-.0071-.1777-.0388-.2742-.0952-.09-.0525-.1594-.1125-.2083-.18-.0485-.0672-.0763-.1377-.0836-.2116-.0069-.0737.0072-.1463.0424-.2179l.157.0917c-.0236.0498-.0305.0984-.0209.1457.0103.0471.0325.0908.0666.131.0348.04.0771.0746.127.1037.058.0339.1157.055.1729.0632.0574.0077.1095.0025.1563-.0157.047-.0186.0839-.0508.1107-.0966.0243-.0417.0325-.0824.0245-.1222-.0081-.0398-.0263-.0789-.0548-.1175-.0285-.0385-.0612-.0769-.0982-.1149l-.1288-.1344c-.0816-.0855-.1358-.1712-.1625-.2569-.0267-.0858-.0153-.171.0341-.2556.0411-.0703.0959-.1206.1645-.1507.0692-.0303.1446-.0411.2262-.0324.0822.0085.1633.0361.2435.0829.0809.0473.1444.1038.1904.1696.0463.0654.0733.1338.0809.2052.0081.0716-.0053.1397-.0403.2043z" fill="#285c3e"/></svg>