<svg fill="none" height="25" viewBox="0 0 25 25" width="25" xmlns="http://www.w3.org/2000/svg"><path clip-rule="evenodd" d="m13.2795 24.2453c.7164-.0601 1.3303-.1628 2.0012-.3348 2.8797-.7381 5.3666-2.4989 7.012-4.9645 3.1801-4.7653 2.5556-11.098-1.4938-15.14733-.5819-.58193-1.1385-1.03862-1.8206-1.49381-4.514-3.01238-10.46779-2.62754-14.55934.94107-2.20092 1.91961-3.636716 4.61109-4.007757 7.51267-.02532.198-.053543.4873-.062711.6428-.009192.1556-.025896.2885-.037129.2955-.011232.0069-.020424.2826-.020424.6126s.00924.5943.02052.5873.027984.1139.037105.2686c.115441 1.9567.837526 4.0558 1.988596 5.7806 1.63281 2.4468 4.10656 4.2077 6.95378 4.95 1.27536.3325 2.70106.4573 3.98856.3493zm-.2566-1.4889c.5063-.0482.6736-.0683.996-.1196 1.7102-.2721 3.4546-1.0439 4.812-2.1288 2.2114-1.7675 3.559-4.197 3.9167-7.0614.0528-.4224.0606-1.82.0125-2.232-.3401-2.9131-1.6935-5.36986-3.9538-7.17708-1.4791-1.18263-3.3118-1.93522-5.3274-2.18767-.4793-.06005-1.8486-.06005-2.328 0-1.74937.21912-3.27157.77683-4.66796 1.71029-2.18539 1.46088-3.73747 3.68323-4.36534 6.25051-.21825.89255-.27753 1.42045-.27753 2.47195 0 1.0516.05928 1.5795.27753 2.472.36221 1.4811 1.05346 2.8983 1.97247 4.044 1.77326 2.2108 4.19976 3.5603 7.03683 3.9135.2942.0366 1.6455.0682 1.896.0443zm-.5863-3.7315c.2455-.0381.2519-.0439 2.3045-2.1025 2.1631-2.1692 2.0638-2.0555 2.067-2.3685.0028-.2728-.0914-.463-.3129-.6319-.1257-.0959-.258-.1345-.4542-.1325-.3051.0032-.284-.0143-1.7041 1.4039l-1.278 1.2762v-4.7926c0-4.74681-.0004-4.79378-.0483-4.92189-.058-.15485-.2174-.32537-.3782-.40457-.0918-.04524-.1523-.05589-.3175-.05589-.1651 0-.2256.01065-.3175.05589-.1608.0792-.3201.24972-.3781.40457-.0479.12811-.0484.17508-.0484 4.92189v4.7926l-1.278-1.2762c-1.42007-1.4182-1.39892-1.4007-1.70403-1.4039-.19616-.002-.32852.0366-.45423.1325-.22149.1689-.31565.3591-.31286.6319.00317.3132-.09732.1982 2.07705 2.3773 1.74877 1.7526 1.98317 1.9791 2.10217 2.0312.1555.0682.2819.0863.4356.0625zm11.8679-6.7423c0-.3366-.0034-.4743-.0075-.306s-.0041.4438 0 .612c.0041.1683.0075.0306.0075-.306z" fill="#021978" fill-rule="evenodd"/></svg>