<svg fill="none" height="16" viewBox="0 0 16 16" width="16" xmlns="http://www.w3.org/2000/svg"><path clip-rule="evenodd" d="m7.24607.391005c-2.35557.150888-4.47002 1.360005-5.77668 3.303285-.639765.95146-1.029933 1.97083-1.209981 3.16131-.05112.33799-.071184 1.32504-.034824 1.71285.113784 1.21308.508176 2.35485 1.167835 3.38095.38062.592 1.08353 1.3698 1.62096 1.7935 1.14752.9048 2.52377 1.4636 3.94469 1.6015.36876.0358 1.11744.0358 1.488-.0001.86734-.0839 1.76453-.3459 2.59403-.7573 1.4531-.7208 2.6277-1.8909 3.3557-3.3429.4086-.8151.651-1.63794.7612-2.58464.0438-.37625.0381-1.24603-.0108-1.64782-.3531-2.90145-2.3068-5.31259-5.0561-6.239995-.91133-.307392-1.90704-.440664-2.84403-.38064zm-.12 1.517115c-.132.01212-.25233.03492-.26738.05068-.04455.04659-.2251.85222-.34411 1.53545-.07174.41182-.19251 1.25206-.19251 1.3393 0 .04469.03679.04591 1.37146.04591h1.37143l-.01591-.174c-.02465-.26928-.12946-.97195-.21034-1.41-.09031-.48924-.27739-1.32259-.30225-1.3465-.02873-.02764-.60401-.06986-.90168-.06619-.1478.00183-.37671.01323-.50871.02535zm3.09173.57549c.0739.29916.2692 1.51733.3283 2.04785.0147.132.0317.26431.0378.294l.0111.054h1.1421c.9902 0 1.1403-.00466 1.1287-.03497-.0273-.07116-.3309-.51144-.4872-.70641-.5366-.66967-1.2384-1.23929-1.9976-1.62123-.1718-.08642-.1766-.08741-.1632-.03324zm-5.35301.11374c-.68057.3557-1.34393.906-1.84886 1.53374-.17002.21137-.41136.55824-.4831.69437l-.02844.054h1.15039 1.15042l.01651-.174c.04452-.4691.20971-1.54272.31414-2.04156.03929-.18782.04092-.20865.01622-.20786-.00989.00029-.13917.06388-.28728.14131zm-2.99429 3.84811c-.12842.55579-.1637.86511-.16358 1.434.00005.2706.01284.5838.02842.696.02853.20556.11397.6721.13735.75.01183.03941.10308.042 1.47528.042h1.46268l-.01239-.09c-.0576-.41909-.11685-1.78954-.10485-2.42472l.00871-.46128h-1.40957-1.40957zm4.33169.648c.0001.60996.04404 1.63003.08451 1.962.00724.0594.01884.15391.02575.21l.01257.102h1.37492 1.37493l.02777-.318c.06598-.75509.08583-1.34371.07815-2.316l-.00272-.342h-1.488-1.488zm4.48781.05981c-.0001.66293-.0364 1.52143-.0868 2.05238l-.0154.16219 1.4611-.00619 1.461-.00619.0413-.192c.1732-.80654.1777-1.72454.0121-2.508l-.0532-.252-1.41-.00619-1.41-.00619zm-8.15702 3.78023c.01574.0296.09355.1512.17294.27.54996.823 1.32372 1.52 2.18849 1.9714.29378.1534.68594.3263.70245.3098.00454-.0046-.01893-.0985-.05217-.2088-.13423-.4452-.38011-1.4986-.47254-2.0244-.02551-.1452-.05193-.2884-.0587-.318l-.01229-.054h-1.24838-1.24839zm4.01836.036c.11921.695.41878 1.8646.71062 2.7744.03878.1209.08366.1356.41467.1356.42684 0 .39739.0174.50038-.2961.22123-.6735.44455-1.5243.59165-2.2539l.09069-.45h-1.16172-1.16174zm3.73396.4562c-.0937.4881-.37395 1.6574-.46871 1.9558-.01992.0626-.03163.114-.02604.114.00562 0 .1374-.0546.29285-.1213.8284-.3552 1.6041-.9302 2.1831-1.6182.1812-.2153.6076-.819.6076-.8603 0-.0089-.5589-.0161-1.242-.016l-1.242.0002z" fill="#000" fill-rule="evenodd"/></svg>